<svg width="16" height="16" viewBox="0 0 16 16" fill="none" xmlns="http://www.w3.org/2000/svg">
<g clip-path="url(#clip0_2_231)">
<path d="M0 8C0 10.1217 0.842854 12.1566 2.34315 13.6569C3.84344 15.1571 5.87827 16 8 16C10.1217 16 12.1566 15.1571 13.6569 13.6569C15.1571 12.1566 16 10.1217 16 8C16 5.87827 15.1571 3.84344 13.6569 2.34315C12.1566 0.842855 10.1217 0 8 0C5.87827 0 3.84344 0.842855 2.34315 2.34315C0.842854 3.84344 0 5.87827 0 8ZM8 4C8.12639 4.00007 8.25137 4.02662 8.36688 4.07793C8.48239 4.12924 8.58587 4.20418 8.67066 4.29791C8.75544 4.39165 8.81965 4.5021 8.85916 4.62217C8.89866 4.74223 8.91257 4.86923 8.9 4.995L8.55 8.502C8.53824 8.63977 8.4752 8.76811 8.37336 8.86164C8.27151 8.95516 8.13827 9.00705 8 9.00705C7.86173 9.00705 7.72849 8.95516 7.62664 8.86164C7.5248 8.76811 7.46176 8.63977 7.45 8.502L7.1 4.995C7.08743 4.86923 7.10134 4.74223 7.14085 4.62217C7.18035 4.5021 7.24456 4.39165 7.32934 4.29791C7.41413 4.20418 7.51761 4.12924 7.63312 4.07793C7.74863 4.02662 7.87361 4.00007 8 4ZM7.998 10C8.26322 10 8.51757 10.1054 8.70511 10.2929C8.89264 10.4804 8.998 10.7348 8.998 11C8.998 11.2652 8.89264 11.5196 8.70511 11.7071C8.51757 11.8946 8.26322 12 7.998 12C7.73278 12 7.47843 11.8946 7.29089 11.7071C7.10336 11.5196 6.998 11.2652 6.998 11C6.998 10.7348 7.10336 10.4804 7.29089 10.2929C7.47843 10.1054 7.73278 10 7.998 10Z" fill="#495057"/>
</g>
<defs>
<clipPath id="clip0_2_231">
<rect width="16" height="16" fill="white" transform="matrix(-1 0 0 1 16 0)"/>
</clipPath>
</defs>
</svg>
